<svg width="80" height="80" viewBox="0 0 80 80" xmlns="http://www.w3.org/2000/svg"><defs><pattern id="satori_pattern_id_0" x="0" y="0" width="1" height="1" patternUnits="objectBoundingBox"><linearGradient id="satori_biid_0" x1="0" y1="0" x2="1.0000000000000009" y2="0.9999999999999992"><stop offset="0%" stop-color="#10b981"/><stop offset="100%" stop-color="#059669"/></linearGradient><rect x="0" y="0" width="80" height="80" fill="url(#satori_biid_0)"/></pattern></defs><mask id="satori_om-id"><rect x="0" y="0" width="80" height="80" fill="#fff"/></mask><path x="0" y="0" width="80" height="80" fill="url(#satori_pattern_id_0)" d="M12,0 h56 a12,12 0 0 1 12,12 v56 a12,12 0 0 1 -12,12 h-56 a12,12 0 0 1 -12,-12 v-56 a12,12 0 0 1 12,-12"/><path fill="white" d="M33.7 53.8L27.5 53.8L27.5 24.7L33.7 24.7L33.7 36.7L46.2 36.7L46.2 24.7L52.3 24.7L52.3 53.8L46.2 53.8L46.2 41.7L33.7 41.7L33.7 53.8Z "/></svg>